<?xml version="1.0" encoding="utf-8"?>
<!-- Generator: Adobe Illustrator 23.0.1, SVG Export Plug-In . SVG Version: 6.00 Build 0)  -->
<svg version="1.1" id="Layer_1" xmlns="http://www.w3.org/2000/svg" xmlns:xlink="http://www.w3.org/1999/xlink" x="0px" y="0px"
	 viewBox="0 0 700 700" style="enable-background:new 0 0 700 700;" xml:space="preserve">
<style type="text/css">
	.st0{fill:none;}
	.st1{fill:#0095DE;}
</style>
<rect x="300" y="300" class="st0" width="150" height="150"/>
    <!--Fun animation! Rotates 360 degrees slowly  -->
	<animateTransform attributeType="xml" attributeName="transform" type="rotate" from="360 8.4 9.5" to="0 8.4 9.5" dur="200s" additive="sum" repeatCount="indefinite" />
<path class="st1" d="M623.3,413.4c-1.7-6.9-8.7-11.3-15.6-9.5c-4.3,0.9-6.9,3.5-8.7,6.9l-204.3-36.4c0.9-3.5,0.9-6.9,0.9-10.4
	c0-1.7,0-3.5,0-4.3l163.6-29.4c0.9,1.7,3.5,3.5,5.2,3.5c4.3,0.9,7.8-2.6,7.8-6.1c0.9-4.3-2.6-7.8-6.1-7.8c-4.3-0.9-7.8,2.6-7.8,6.1
	v0.9l-163.6,29.4c-0.9-5.2-2.6-9.5-4.3-13.9l82.2-46.7c2.6,4.3,7.8,7.8,13.9,8.7c10.4,0.9,19.9-6.1,21.6-16.4
	c0.9-10.4-6.1-19.9-16.4-21.6c-10.4-0.9-19.9,6.1-21.6,16.4c0,3.5,0,6.9,1.7,9.5L389.6,339c-2.6-5.2-6.1-9.5-9.5-13l131.6-156.7
	c2.6,1.7,6.1,2.6,9.5,1.7c6.9-1.7,11.3-8.7,9.5-15.6c-1.7-6.9-8.7-11.3-15.6-9.5c-6.9,1.7-11.3,8.7-9.5,15.6
	c0.9,2.6,1.7,4.3,3.5,6.1L377.4,323.4c-3.5-2.6-6.9-5.2-11.3-7.8l62.3-148.9c2.6,0.9,6.1,0.9,9.5,0c9.5-2.6,15.6-12.1,13-21.6
	c-2.6-9.5-12.1-15.6-21.6-13s-15.6,12.1-13,21.6c0.9,5.2,4.3,9.5,8.7,11.3l-62.3,148.9c-4.3-1.7-8.7-2.6-13-3.5L361.9,171
	c0.9,0,2.6,0,3.5-0.9c4.3-2.6,6.1-7.8,4.3-12.1c-2.6-4.3-7.8-6.1-12.1-4.3c-4.3,2.6-6.1,7.8-4.3,12.1c0.9,2.6,3.5,3.5,5.2,4.3
	l-12.1,139.4c-1.7,0-2.6,0-4.3,0c-0.9,0-1.7,0-2.6,0l-19-236.3c0,0,0,0,0.9,0c6.9-1.7,11.3-8.7,9.5-15.6c-1.7-6.9-8.7-11.3-15.6-9.5
	c-6.9,1.7-11.3,8.7-9.5,15.6c1.7,6.1,6.1,9.5,11.3,10.4l19,238.1c-2.6,0-6.1,0.9-8.7,1.7L303,225.6c5.2-2.6,7.8-8.7,6.9-14.7
	c-1.7-6.9-8.7-11.3-15.6-9.5c-6.9,1.7-11.3,8.7-9.5,15.6s8.7,11.3,15.6,9.5l24.2,88.3c-3.5,1.7-7.8,3.5-10.4,5.2l-99.6-157.6
	c0.9-0.9,1.7-0.9,1.7-1.7c3.5-4.3,2.6-11.3-2.6-14.7c-4.3-3.5-11.3-2.6-14.7,2.6c-3.5,4.3-2.6,11.3,2.6,14.7
	c2.6,2.6,6.9,2.6,9.5,1.7l99.6,156.7c-4.3,2.6-7.8,6.1-10.4,9.5L153.2,210.8c1.7-2.6,3.5-6.1,3.5-8.7c0.9-10.4-6.1-19.9-16.4-21.6
	c-10.4-0.9-19.9,6.1-21.6,16.4c-0.9,10.4,6.1,19.9,16.4,21.6c6.1,0.9,11.3-1.7,15.6-5.2l147.2,121.2c-0.9,1.7-2.6,3.5-3.5,5.2
	L187.9,281c0-1.7,0-4.3-1.7-6.1c-2.6-2.6-6.9-2.6-9.5,0c-2.6,2.6-2.6,6.9,0,9.5c2.6,2.6,6.9,2.6,9.5,0c0,0,0,0,0-0.9l107.3,58
	c-1.7,4.3-3.5,8.7-4.3,13L123.8,326c0-2.6-2.6-5.2-5.2-5.2c-3.5,0-6.1,1.7-6.9,5.2c0,3.5,1.7,6.1,5.2,6.9c2.6,0,5.2-0.9,6.1-3.5
	L289.2,358c0,1.7,0,3.5,0,6.1c0,0.9,0,0.9,0,1.7H82.3c-0.9-3.5-2.6-6.1-5.2-8.7c-5.2-5.2-13.9-3.5-18.2,1.7
	c-4.3,6.1-3.5,13.9,2.6,18.2c6.1,4.3,13.9,3.5,18.2-2.6c1.7-1.7,2.6-4.3,2.6-6.1h206.9c0,3.5,0.9,6.9,1.7,9.5l-118.6,32.9
	c-2.6-5.2-8.7-8.7-14.7-6.9c-6.9,1.7-11.3,8.7-9.5,15.6c1.7,6.9,8.7,11.3,15.6,9.5c6.9-1.7,11.3-8.7,9.5-14.7l118.6-32
	c0.9,3.5,2.6,6.1,4.3,9.5L112.6,497.4c-2.6-2.6-6.1-4.3-9.5-3.5c-5.2,0.9-8.7,6.1-6.9,12.1c0.9,5.2,6.1,8.7,12.1,6.9
	c5.2-0.9,8.7-6.1,6.9-12.1V500l184.4-105.6c1.7,2.6,3.5,5.2,6.1,6.9L174,523.3c0,0,0,0-0.9,0c-3.5-0.9-6.1,0.9-7.8,3.5
	c-0.9,3.5,0.9,6.1,3.5,7.8c3.5,0.9,6.1-0.9,7.8-3.5c0.9-1.7,0-3.5-0.9-5.2l129.9-122.1c3.5,2.6,6.1,5.2,10.4,6.9l-45,84
	c-3.5-2.6-8.7-3.5-13-1.7c-9.5,2.6-15.6,12.1-13,21.6c2.6,9.5,12.1,15.6,21.6,13s15.6-12.1,13-21.6c-0.9-3.5-2.6-6.9-5.2-8.7
	l46.7-84.8c2.6,0.9,5.2,1.7,7.8,2.6L274.4,603c-2.6,0-4.3,0-6.9,0c-9.5,2.6-15.6,12.1-13,21.6c2.6,9.5,12.1,15.6,21.6,13
	c9.5-2.6,15.6-12.1,13-21.6c-1.7-6.1-6.1-10.4-11.3-13l54.5-187.9c3.5,0.9,6.9,0.9,9.5,0.9l-1.7,211.2c-3.5,0.9-6.1,2.6-8.7,5.2
	c-4.3,6.1-3.5,13.9,2.6,18.2c6.1,4.3,13.9,3.5,18.2-2.6c4.3-6.1,3.5-13.9-2.6-18.2c-1.7-1.7-4.3-2.6-6.1-2.6V416.9
	c3.5,0,6.1-0.9,9.5-0.9L387,540.7c-0.9,0-0.9,0.9-1.7,0.9c-2.6,2.6-2.6,7.8,0,10.4c2.6,2.6,7.8,2.6,10.4,0c2.6-2.6,2.6-7.8,0-10.4
	c-1.7-1.7-4.3-2.6-6.1-2.6l-33.8-123.8c3.5-0.9,6.9-2.6,9.5-3.5l75.3,123.8c-0.9,0.9-0.9,1.7-1.7,2.6c-0.9,3.5,0.9,6.1,3.5,7.8
	c3.5,0.9,6.1-0.9,7.8-3.5c0.9-3.5-0.9-6.1-3.5-7.8c-0.9,0-1.7,0-2.6,0l-75.3-123.8c1.7-0.9,3.5-1.7,4.3-3.5l107.3,127.3
	c-4.3,4.3-6.1,10.4-4.3,16.4c2.6,9.5,12.1,15.6,21.6,13c9.5-2.6,15.6-12.1,13-21.6c-2.6-9.5-12.1-15.6-21.6-13
	c-2.6,0.9-4.3,1.7-6.1,2.6L376.6,404.7c3.5-2.6,6.9-6.9,9.5-10.4l111.7,65.8c-0.9,2.6-1.7,5.2-0.9,7.8c1.7,6.9,8.7,11.3,15.6,9.5
	c6.9-1.7,11.3-8.7,9.5-15.6c-1.7-6.9-8.7-11.3-15.6-9.5c-2.6,0.9-5.2,2.6-6.9,4.3l-111.7-64.9c2.6-4.3,4.3-8.7,6.1-13.9l204.3,36.4
	c0,1.7,0,3.5,0,5.2c1.7,6.9,8.7,11.3,15.6,9.5C620.7,427.3,625,420.3,623.3,413.4z"/>

</svg>
